# Blender v2.93.1 OBJ File: ''
# www.blender.org
mtllib slime.mtl
o Cube
v 1.000000 -1.000000 -1.000000
v 1.000000 -1.000000 1.000000
v 1.000000 1.000000 -1.000000
v 1.000000 1.000000 1.000000
v -1.000000 -1.000000 -1.000000
v -1.000000 -1.000000 1.000000
v -1.000000 1.000000 -1.000000
v -1.000000 1.000000 1.000000
vt 0.648622 0.503670
vt 0.922244 0.505505
vt 0.919882 0.720638
vt 0.646260 0.718803
vt 0.358465 0.496750
vt 0.641535 0.496750
vt 0.641535 0.728399
vt 0.358465 0.728399
vt 0.363189 0.491819
vt 0.641535 0.491819
vt 0.641535 0.717962
vt 0.363189 0.717962
vt 0.068307 0.507341
vt 0.351378 0.505506
vt 0.349016 0.722473
vt 0.065945 0.724308
vt 0.356102 0.274277
vt 0.646260 0.274277
vt 0.646260 0.498585
vt 0.356102 0.498585
vt 0.363189 0.477558
vt 0.613189 0.477558
vt 0.613189 0.727558
vt 0.363189 0.727558
vn 0.0000 0.0000 -1.0000
vn 0.0000 1.0000 0.0000
vn -1.0000 0.0000 0.0000
vn 0.0000 0.0000 1.0000
vn 1.0000 0.0000 0.0000
vn 0.0000 -1.0000 0.0000
usemtl Material
s off
f 1/1/1 5/2/1 7/3/1 3/4/1
f 4/5/2 3/6/2 7/7/2 8/8/2
f 8/9/3 7/10/3 5/11/3 6/12/3
f 6/13/4 2/14/4 4/15/4 8/16/4
f 2/17/5 1/18/5 3/19/5 4/20/5
f 6/21/6 5/22/6 1/23/6 2/24/6
