# Blender v2.93.1 OBJ File: 'cubo.blend'
# www.blender.org
mtllib piedra.mtl
o Cube
v 1.000000 1.000000 -1.000000
v 1.000000 -1.000000 -1.000000
v 1.000000 1.000000 1.000000
v 1.000000 -1.000000 1.000000
v -1.000000 1.000000 -1.000000
v -1.000000 -1.000000 -1.000000
v -1.000000 1.000000 1.000000
v -1.000000 -1.000000 1.000000
vt 0.245356 0.328229
vt 0.495356 0.328229
vt 0.495356 0.664114
vt 0.245356 0.664114
vt -0.008764 0.026063
vt 0.986528 0.026063
vt 0.979561 1.014973
vt -0.008764 1.024266
vt 1.014558 0.015496
vt 0.995535 1.012058
vt -0.005001 0.993035
vt 0.014022 -0.003526
vt 0.746639 0.343037
vt 0.996639 0.343037
vt 0.996639 0.661153
vt 0.746639 0.661153
vt 0.995606 1.003189
vt 0.009645 0.997256
vt 0.012979 -0.001961
vt 0.998940 0.003972
vt 0.003160 1.014458
vt -0.001100 0.001160
vt 0.985575 -0.003100
vt 0.989835 1.010199
vn 0.0000 1.0000 0.0000
vn 0.0000 0.0000 1.0000
vn -1.0000 0.0000 0.0000
vn 0.0000 -1.0000 0.0000
vn 1.0000 0.0000 0.0000
vn 0.0000 0.0000 -1.0000
usemtl tierra
s off
f 1/1/1 5/2/1 7/3/1 3/4/1
f 4/5/2 3/6/2 7/7/2 8/8/2
f 8/9/3 7/10/3 5/11/3 6/12/3
f 6/13/4 2/14/4 4/15/4 8/16/4
f 2/17/5 1/18/5 3/19/5 4/20/5
f 6/21/6 5/22/6 1/23/6 2/24/6
